<svg width="96" height="96" xmlns="http://www.w3.org/2000/svg" xmlns:xlink="http://www.w3.org/1999/xlink" xml:space="preserve" overflow="hidden"><g transform="translate(-742 -421)"><path d="M765 435 815 435 815 503 765 503 765 435ZM759 509 821 509 821 429 759 429 759 509Z" fill="#FFFFFF"/><path d="M772 441 780 441 780 449 772 449Z" fill="#FFFFFF"/><path d="M788 443 808 443 808 447 788 447Z" fill="#FFFFFF"/><path d="M772 457 780 457 780 465 772 465Z" fill="#FFFFFF"/><path d="M788 459 808 459 808 463 788 463Z" fill="#FFFFFF"/><path d="M772 473 780 473 780 481 772 481Z" fill="#FFFFFF"/><path d="M788 475 808 475 808 479 788 479Z" fill="#FFFFFF"/><path d="M772 489 780 489 780 497 772 497Z" fill="#FFFFFF"/><path d="M788 491 808 491 808 495 788 495Z" fill="#FFFFFF"/></g></svg>