<svg width="96" height="96" xmlns="http://www.w3.org/2000/svg" xmlns:xlink="http://www.w3.org/1999/xlink" xml:space="preserve" overflow="hidden"><g transform="translate(-410 -418)"><path d="M433 432 483 432 483 500 433 500 433 432ZM427 506 489 506 489 426 427 426 427 506Z" fill="#00529C"/><path d="M440 438 448 438 448 446 440 446Z" fill="#00529C"/><path d="M456 440 476 440 476 444 456 444Z" fill="#00529C"/><path d="M440 454 448 454 448 462 440 462Z" fill="#00529C"/><path d="M456 456 476 456 476 460 456 460Z" fill="#00529C"/><path d="M440 470 448 470 448 478 440 478Z" fill="#00529C"/><path d="M456 472 476 472 476 476 456 476Z" fill="#00529C"/><path d="M440 486 448 486 448 494 440 494Z" fill="#00529C"/><path d="M456 488 476 488 476 492 456 492Z" fill="#00529C"/></g></svg>