<svg width="96" height="96" xmlns="http://www.w3.org/2000/svg" xmlns:xlink="http://www.w3.org/1999/xlink" xml:space="preserve" overflow="hidden"><g transform="translate(-563 -421)"><path d="M586 435 636 435 636 503 586 503 586 435ZM580 509 642 509 642 429 580 429 580 509Z" fill="#A80F39"/><path d="M593 441 601 441 601 449 593 449Z" fill="#A80F39"/><path d="M609 443 629 443 629 447 609 447Z" fill="#A80F39"/><path d="M593 457 601 457 601 465 593 465Z" fill="#A80F39"/><path d="M609 459 629 459 629 463 609 463Z" fill="#A80F39"/><path d="M593 473 601 473 601 481 593 481Z" fill="#A80F39"/><path d="M609 475 629 475 629 479 609 479Z" fill="#A80F39"/><path d="M593 489 601 489 601 497 593 497Z" fill="#A80F39"/><path d="M609 491 629 491 629 495 609 495Z" fill="#A80F39"/></g></svg>