<svg width="96" height="96" xmlns="http://www.w3.org/2000/svg" xmlns:xlink="http://www.w3.org/1999/xlink" xml:space="preserve" overflow="hidden"><g transform="translate(-567 -229)"><path d="M615 273C610 273 606 269 606 264 606 259 610 255 615 255 620 255 624 259 624 264 624 269 620 273 615 273ZM615 243C608.1 243 601.6 246.4 597.7 252.2 593.8 257.9 593 265.2 595.5 271.7L605 292.7 613.2 309.9C613.5 310.6 614.2 311 615 311 615.8 311 616.5 310.6 616.8 309.9L625 292.7 634.5 271.7C637 265.2 636.2 257.9 632.3 252.2 628.4 246.4 621.9 243 615 243Z" fill="#A80F39"/></g></svg>