<svg width="96" height="96" xmlns="http://www.w3.org/2000/svg" xmlns:xlink="http://www.w3.org/1999/xlink" xml:space="preserve" overflow="hidden"><g transform="translate(-410 -228)"><path d="M458 272C453 272 449 268 449 263 449 258 453 254 458 254 463 254 467 258 467 263 467 268 463 272 458 272ZM458 242C451.1 242 444.6 245.4 440.7 251.2 436.8 256.9 436 264.2 438.5 270.7L448 291.7 456.2 308.9C456.5 309.6 457.2 310 458 310 458.8 310 459.5 309.6 459.8 308.9L468 291.7 477.5 270.7C480 264.2 479.2 256.9 475.3 251.2 471.4 245.4 464.9 242 458 242Z" fill="#00529C"/></g></svg>