<svg width="96" height="96" xmlns="http://www.w3.org/2000/svg" xmlns:xlink="http://www.w3.org/1999/xlink" xml:space="preserve" overflow="hidden"><g transform="translate(-746 -229)"><path d="M794 273C789 273 785 269 785 264 785 259 789 255 794 255 799 255 803 259 803 264 803 269 799 273 794 273ZM794 243C787.1 243 780.6 246.4 776.7 252.2 772.8 257.9 772 265.2 774.5 271.7L784 292.7 792.2 309.9C792.5 310.6 793.2 311 794 311 794.8 311 795.5 310.6 795.8 309.9L804 292.7 813.5 271.7C816 265.2 815.2 257.9 811.3 252.2 807.4 246.4 800.9 243 794 243Z" fill="#FFFFFF"/></g></svg>