<svg width="82" height="81" xmlns="http://www.w3.org/2000/svg" xmlns:xlink="http://www.w3.org/1999/xlink" xml:space="preserve" overflow="hidden"><g transform="translate(-570 -122)"><path d="M72.1406 63.7875 61.5938 53.2406C60.1594 51.8063 58.2188 51.3 56.3625 51.6375L52.65 47.925C55.9406 43.7062 57.8812 38.3063 57.8812 32.5687 57.8812 18.6469 46.4906 7.25625 32.5687 7.25625 18.6469 7.25625 7.25625 18.6469 7.25625 32.5687 7.25625 46.4906 18.6469 57.8812 32.5687 57.8812 38.3063 57.8812 43.6219 55.9406 47.925 52.65L51.6375 56.3625C51.3 58.2188 51.8063 60.1594 53.2406 61.5938L63.7875 72.1406C64.9688 73.3219 66.4875 73.9125 68.0062 73.9125 69.525 73.9125 71.0437 73.3219 72.225 72.1406 74.4187 69.7781 74.4187 66.0656 72.1406 63.7875ZM32.4844 52.7344C21.3469 52.7344 12.2344 43.6219 12.2344 32.4844 12.2344 21.3469 21.3469 12.2344 32.4844 12.2344 43.6219 12.2344 52.7344 21.3469 52.7344 32.4844 52.7344 43.6219 43.6219 52.7344 32.4844 52.7344Z" fill="#A80F39" transform="matrix(1.01235 0 0 1 570 122)"/></g></svg>