<svg width="81" height="81" xmlns="http://www.w3.org/2000/svg" xmlns:xlink="http://www.w3.org/1999/xlink" xml:space="preserve" overflow="hidden"><g transform="translate(-410 -122)"><path d="M482.141 185.788 471.594 175.241C470.159 173.806 468.219 173.3 466.362 173.637L462.65 169.925C465.941 165.706 467.881 160.306 467.881 154.569 467.881 140.647 456.491 129.256 442.569 129.256 428.647 129.256 417.256 140.647 417.256 154.569 417.256 168.491 428.647 179.881 442.569 179.881 448.306 179.881 453.622 177.941 457.925 174.65L461.638 178.363C461.3 180.219 461.806 182.159 463.241 183.594L473.788 194.141C474.969 195.322 476.487 195.913 478.006 195.913 479.525 195.913 481.044 195.322 482.225 194.141 484.419 191.778 484.419 188.066 482.141 185.788ZM442.484 174.734C431.347 174.734 422.234 165.622 422.234 154.484 422.234 143.347 431.347 134.234 442.484 134.234 453.622 134.234 462.734 143.347 462.734 154.484 462.734 165.622 453.622 174.734 442.484 174.734Z" fill="#00529C"/></g></svg>