<svg width="81" height="81" xmlns="http://www.w3.org/2000/svg" xmlns:xlink="http://www.w3.org/1999/xlink" xml:space="preserve" overflow="hidden"><g transform="translate(-749 -122)"><path d="M821.141 185.788 810.594 175.241C809.159 173.806 807.219 173.3 805.362 173.637L801.65 169.925C804.941 165.706 806.881 160.306 806.881 154.569 806.881 140.647 795.491 129.256 781.569 129.256 767.647 129.256 756.256 140.647 756.256 154.569 756.256 168.491 767.647 179.881 781.569 179.881 787.306 179.881 792.622 177.941 796.925 174.65L800.638 178.363C800.3 180.219 800.806 182.159 802.241 183.594L812.787 194.141C813.969 195.322 815.487 195.913 817.006 195.913 818.525 195.913 820.044 195.322 821.225 194.141 823.419 191.778 823.419 188.066 821.141 185.788ZM781.484 174.734C770.347 174.734 761.234 165.622 761.234 154.484 761.234 143.347 770.347 134.234 781.484 134.234 792.622 134.234 801.734 143.347 801.734 154.484 801.734 165.622 792.622 174.734 781.484 174.734Z" fill="#FFFFFF"/></g></svg>